<?xml version="1.0" encoding="UTF-8" standalone="no"?>
<!-- Created with Inkscape (http://www.inkscape.org/) -->

<svg
   xmlns:dc="http://purl.org/dc/elements/1.1/"
   xmlns:cc="http://creativecommons.org/ns#"
   xmlns:rdf="http://www.w3.org/1999/02/22-rdf-syntax-ns#"
   xmlns:svg="http://www.w3.org/2000/svg"
   xmlns="http://www.w3.org/2000/svg"
   xmlns:sodipodi="http://sodipodi.sourceforge.net/DTD/sodipodi-0.dtd"
   xmlns:inkscape="http://www.inkscape.org/namespaces/inkscape"
   width="50.264584mm"
   height="50.264584mm"
   viewBox="0 0 50.264584 50.264584"
   version="1.1"
   id="svg8"
   inkscape:version="0.92.4 (5da689c313, 2019-01-14)"
   sodipodi:docname="icon.svg">
  <defs
     id="defs2" />
  <sodipodi:namedview
     id="base"
     pagecolor="#ffffff"
     bordercolor="#666666"
     borderopacity="1.0"
     inkscape:pageopacity="0.0"
     inkscape:pageshadow="2"
     inkscape:zoom="0.47816647"
     inkscape:cx="-916.58248"
     inkscape:cy="59.31982"
     inkscape:document-units="mm"
     inkscape:current-layer="layer1"
     showgrid="false"
     inkscape:window-width="1920"
     inkscape:window-height="1016"
     inkscape:window-x="0"
     inkscape:window-y="27"
     inkscape:window-maximized="1" />
  <metadata
     id="metadata5">
    <rdf:RDF>
      <cc:Work
         rdf:about="">
        <dc:format>image/svg+xml</dc:format>
        <dc:type
           rdf:resource="http://purl.org/dc/dcmitype/StillImage" />
        <dc:title></dc:title>
      </cc:Work>
    </rdf:RDF>
  </metadata>
  <g
     inkscape:label="Camada 1"
     inkscape:groupmode="layer"
     id="layer1"
     transform="translate(-78.440416,-107.62922)">
    <rect
       style="opacity:1;fill:#e20041;fill-opacity:1;stroke:#000000;stroke-width:0.26458332;stroke-opacity:0"
       id="rect3772"
       width="50"
       height="50"
       x="78.572708"
       y="107.76151" />
    <g
       style="fill:none"
       id="g3748"
       transform="matrix(0.17062182,0,0,0.17062182,82.245009,123.71856)">
      <path
         id="path3713"
         d="M 93.93,94.2987 H 76.8668 L 87.1185,59.4013 H 78.4493 L 64.2071,106 H 47.1439 L 75.3532,11.6325 h 17.0631 l -9.6324,33.1078 h 8.6692 L 105.145,0 h 17.063 z"
         inkscape:connector-curvature="0"
         style="fill:#ffffff" />
      <path
         id="path3715"
         d="m 123.584,11.6325 h 32.544 L 151.243,26.5 H 136.45 l -5.366,18.1714 h 14.861 l -4.678,14.6611 h -14.518 l -5.711,19.2039 h 15.825 l -5.711,15.6935 H 99.2278 Z"
         inkscape:connector-curvature="0"
         style="fill:#ffffff" />
      <path
         id="path3717"
         d="M 151.312,106 H 134.111 L 161.563,11.6325 H 192.8 c 3.715,0 6.192,1.0324 7.499,3.1662 1.308,2.1338 1.514,4.5429 0.689,7.2961 l -8.257,28.0831 c -0.413,1.239 -1.17,2.3403 -2.339,3.3728 -1.17,1.0324 -2.821,1.5142 -4.954,1.5142 1.307,0.2065 2.408,1.0325 3.303,2.478 0.894,1.4454 0.894,3.648 0,6.6078 l -8.876,30.148 h -17.132 l 9.495,-32.4195 c 0.206,-0.6883 0.275,-1.3078 0.069,-1.9272 -0.207,-0.6195 -0.826,-0.8949 -1.858,-0.8949 h -5.711 z m 22.842,-59.126 c 0.826,0 1.583,-0.2065 2.34,-0.6194 0.688,-0.413 1.238,-1.239 1.651,-2.5468 l 4.541,-15.3494 c 0.688,-2.2714 -0.207,-3.4415 -2.615,-3.4415 h -5.366 l -6.468,21.9571 z"
         inkscape:connector-curvature="0"
         style="fill:#ffffff" />
      <path
         id="path3719"
         d="m 242.957,11.6325 c 2.684,0 4.61,0.9636 5.849,2.8909 1.238,1.9273 1.513,4.1299 0.825,6.5389 l -18.989,64.4949 c -1.032,3.4415 -2.821,5.7129 -5.298,6.9519 -2.477,1.239 -5.16,1.7896 -7.981,1.7896 h -20.366 c -1.445,0 -2.752,-0.2753 -3.991,-0.7571 -1.238,-0.4818 -2.201,-1.239 -3.027,-2.2026 -0.826,-0.9637 -1.307,-2.2026 -1.582,-3.5792 -0.276,-1.3767 -0.138,-2.9598 0.412,-4.7494 l 18.646,-63.3247 c 0.619,-2.4091 1.858,-4.4052 3.715,-5.8506 1.858,-1.4455 4.197,-2.2026 7.018,-2.2026 z m -17.888,13.2844 c -0.826,0 -1.445,0.2065 -1.789,0.5506 -0.413,0.413 -0.619,0.8948 -0.826,1.4455 l -15.205,51.4857 c -0.413,1.3766 0.137,2.065 1.582,2.065 h 4.404 c 1.444,0 2.339,-0.6884 2.752,-2.065 l 15.136,-51.4169 c 0.344,-1.4454 -0.206,-2.1337 -1.72,-2.1337 h -4.334 z"
         inkscape:connector-curvature="0"
         style="fill:#ffffff" />
      <path
         id="path3721"
         d="m 31.443,20.6494 h 11.0773 c 1.4449,0 2.3393,0.413 2.7521,1.1701 0.4129,0.7571 0.4817,1.6519 0.2064,2.7532 l -2.6145,8.9481 c -0.1376,0.5506 -0.4816,1.0325 -1.032,1.4455 -0.5504,0.4818 -1.3761,0.6194 -2.4081,0.6194 0.5504,0 0.9632,0.1377 1.2384,0.3442 0.3441,0.2065 0.5505,0.4818 0.6881,0.826 0.1376,0.3441 0.2064,0.6883 0.2064,1.1013 0,0.4129 -0.0688,0.8259 -0.1376,1.1701 l -2.4769,8.1909 c -0.2753,0.9636 -0.8257,1.7208 -1.5137,2.2714 -0.688,0.5507 -1.7889,0.826 -3.0961,0.826 H 22.705 Z m 1.1009,24.7792 c 0.2752,0 0.5504,-0.0688 0.7568,-0.1377 0.2064,-0.1376 0.4128,-0.413 0.5504,-0.8259 L 35.64,38.4766 c 0.1376,-0.4129 0.1376,-0.6883 0,-0.9636 -0.1376,-0.2753 -0.4128,-0.3442 -0.8256,-0.3442 h -1.9265 l -2.4769,8.3286 h 2.1329 z m 3.3713,-12.252 c 0.4128,0 0.7569,-0.0688 0.9633,-0.2065 0.2064,-0.1376 0.4128,-0.4129 0.5504,-0.8948 l 1.5825,-5.3688 c 0.1376,-0.413 0.1376,-0.6883 0.0688,-0.8948 -0.1376,-0.2065 -0.4129,-0.3442 -0.8257,-0.3442 h -1.9953 l -2.2705,7.7091 z"
         inkscape:connector-curvature="0"
         style="fill:#41414d" />
      <path
         id="path3723"
         d="m 48.7812,20.6494 h 11.6965 l -1.5825,5.3688 H 53.391 l -1.9265,6.539 h 5.3666 l -1.5824,5.3 H 49.882 l -2.0641,6.8831 h 5.7107 l -2.0641,5.6441 H 40.0432 Z"
         inkscape:connector-curvature="0"
         style="fill:#41414d" />
      <path
         id="path3725"
         d="m 18.9897,55.5468 -1.5825,5.3688 h -4.197 L 6.12347,85.213 H 0 L 7.22432,60.8468 H 2.95853 L 4.541,55.4779 h 14.4487 z"
         inkscape:connector-curvature="0"
         style="fill:#41414d" />
      <path
         id="path3727"
         d="M 27.3149,85.213 H 21.1915 L 24.838,72.6858 H 21.7419 L 18.0265,85.213 H 11.903 l 8.738,-29.6662 h 6.1235 l -3.4401,11.9078 h 3.0961 l 3.509,-11.9078 h 6.1234 z"
         inkscape:connector-curvature="0"
         style="fill:#41414d" />
      <path
         id="path3729"
         d="m 37.9794,55.5468 h 11.6965 l -1.5825,5.3688 h -5.5042 l -1.9265,6.539 h 5.3666 l -1.5824,5.3 h -5.3667 l -2.0641,6.8831 h 5.7107 l -2.0641,5.6442 H 29.2414 Z"
         inkscape:connector-curvature="0"
         style="fill:#41414d" />
    </g>
  </g>
</svg>
